<?xml version="1.0" encoding="UTF-8"?>
<svg xmlns="http://www.w3.org/2000/svg" xmlns:xlink="http://www.w3.org/1999/xlink" width="119.378pt" height="70.153pt" viewBox="0 0 119.378 70.153">
<defs>
<g>
<g id="glyph-0-0">
<path d="M 6.265625 -5.671875 C 6.75 -6.453125 7.171875 -6.484375 7.53125 -6.5 C 7.65625 -6.515625 7.671875 -6.671875 7.671875 -6.6875 C 7.671875 -6.765625 7.609375 -6.8125 7.53125 -6.8125 C 7.28125 -6.8125 6.984375 -6.78125 6.71875 -6.78125 C 6.390625 -6.78125 6.046875 -6.8125 5.734375 -6.8125 C 5.671875 -6.8125 5.546875 -6.8125 5.546875 -6.625 C 5.546875 -6.515625 5.625 -6.5 5.703125 -6.5 C 5.96875 -6.484375 6.15625 -6.375 6.15625 -6.171875 C 6.15625 -6.015625 6.015625 -5.796875 6.015625 -5.796875 L 2.953125 -0.921875 L 2.265625 -6.203125 C 2.265625 -6.375 2.5 -6.5 2.953125 -6.5 C 3.09375 -6.5 3.203125 -6.5 3.203125 -6.703125 C 3.203125 -6.78125 3.125 -6.8125 3.078125 -6.8125 C 2.671875 -6.8125 2.25 -6.78125 1.828125 -6.78125 C 1.65625 -6.78125 1.46875 -6.78125 1.28125 -6.78125 C 1.109375 -6.78125 0.921875 -6.8125 0.75 -6.8125 C 0.671875 -6.8125 0.5625 -6.8125 0.5625 -6.625 C 0.5625 -6.5 0.640625 -6.5 0.8125 -6.5 C 1.359375 -6.5 1.375 -6.40625 1.40625 -6.15625 L 2.1875 -0.015625 C 2.21875 0.1875 2.265625 0.21875 2.390625 0.21875 C 2.546875 0.21875 2.59375 0.171875 2.671875 0.046875 Z M 6.265625 -5.671875 "/>
</g>
<g id="glyph-0-1">
<path d="M 3.734375 -6.125 C 3.796875 -6.359375 3.828125 -6.453125 4.015625 -6.484375 C 4.109375 -6.5 4.421875 -6.5 4.625 -6.5 C 5.328125 -6.5 6.4375 -6.5 6.4375 -5.515625 C 6.4375 -5.171875 6.28125 -4.484375 5.890625 -4.09375 C 5.625 -3.84375 5.109375 -3.515625 4.203125 -3.515625 L 3.09375 -3.515625 Z M 5.171875 -3.390625 C 6.1875 -3.609375 7.359375 -4.3125 7.359375 -5.3125 C 7.359375 -6.171875 6.46875 -6.8125 5.15625 -6.8125 L 2.328125 -6.8125 C 2.125 -6.8125 2.03125 -6.8125 2.03125 -6.609375 C 2.03125 -6.5 2.125 -6.5 2.3125 -6.5 C 2.328125 -6.5 2.515625 -6.5 2.6875 -6.484375 C 2.875 -6.453125 2.953125 -6.453125 2.953125 -6.3125 C 2.953125 -6.28125 2.953125 -6.25 2.921875 -6.125 L 1.578125 -0.78125 C 1.484375 -0.390625 1.46875 -0.3125 0.671875 -0.3125 C 0.5 -0.3125 0.40625 -0.3125 0.40625 -0.109375 C 0.40625 0 0.53125 0 0.546875 0 C 0.828125 0 1.53125 -0.03125 1.796875 -0.03125 C 2.078125 -0.03125 2.796875 0 3.078125 0 C 3.15625 0 3.265625 0 3.265625 -0.203125 C 3.265625 -0.3125 3.1875 -0.3125 2.984375 -0.3125 C 2.625 -0.3125 2.34375 -0.3125 2.34375 -0.484375 C 2.34375 -0.546875 2.359375 -0.59375 2.375 -0.65625 L 3.03125 -3.296875 L 4.21875 -3.296875 C 5.125 -3.296875 5.296875 -2.734375 5.296875 -2.390625 C 5.296875 -2.25 5.21875 -1.9375 5.15625 -1.703125 C 5.09375 -1.421875 5 -1.0625 5 -0.859375 C 5 0.21875 6.203125 0.21875 6.328125 0.21875 C 7.171875 0.21875 7.53125 -0.78125 7.53125 -0.921875 C 7.53125 -1.046875 7.421875 -1.046875 7.40625 -1.046875 C 7.3125 -1.046875 7.296875 -0.984375 7.28125 -0.90625 C 7.03125 -0.171875 6.59375 0 6.375 0 C 6.046875 0 5.96875 -0.21875 5.96875 -0.609375 C 5.96875 -0.921875 6.03125 -1.421875 6.078125 -1.75 C 6.09375 -1.890625 6.109375 -2.078125 6.109375 -2.21875 C 6.109375 -2.984375 5.4375 -3.296875 5.171875 -3.390625 Z M 5.171875 -3.390625 "/>
</g>
<g id="glyph-0-2">
<path d="M 7.578125 -6.921875 C 7.578125 -6.953125 7.5625 -7.03125 7.46875 -7.03125 C 7.4375 -7.03125 7.421875 -7.015625 7.3125 -6.90625 L 6.625 -6.140625 C 6.53125 -6.28125 6.078125 -7.03125 4.96875 -7.03125 C 2.734375 -7.03125 0.5 -4.828125 0.5 -2.515625 C 0.5 -0.875 1.671875 0.21875 3.203125 0.21875 C 4.0625 0.21875 4.828125 -0.171875 5.359375 -0.640625 C 6.28125 -1.453125 6.453125 -2.359375 6.453125 -2.390625 C 6.453125 -2.5 6.34375 -2.5 6.328125 -2.5 C 6.265625 -2.5 6.21875 -2.46875 6.203125 -2.390625 C 6.109375 -2.109375 5.875 -1.390625 5.1875 -0.8125 C 4.5 -0.265625 3.875 -0.09375 3.359375 -0.09375 C 2.46875 -0.09375 1.40625 -0.609375 1.40625 -2.15625 C 1.40625 -2.734375 1.609375 -4.34375 2.609375 -5.515625 C 3.21875 -6.21875 4.15625 -6.71875 5.046875 -6.71875 C 6.0625 -6.71875 6.65625 -5.953125 6.65625 -4.796875 C 6.65625 -4.390625 6.625 -4.390625 6.625 -4.28125 C 6.625 -4.1875 6.734375 -4.1875 6.765625 -4.1875 C 6.890625 -4.1875 6.890625 -4.203125 6.953125 -4.390625 Z M 7.578125 -6.921875 "/>
</g>
<g id="glyph-0-3">
<path d="M 1.90625 -0.53125 C 1.90625 -0.8125 1.671875 -1.0625 1.390625 -1.0625 C 1.09375 -1.0625 0.859375 -0.8125 0.859375 -0.53125 C 0.859375 -0.234375 1.09375 0 1.390625 0 C 1.671875 0 1.90625 -0.234375 1.90625 -0.53125 Z M 1.90625 -0.53125 "/>
</g>
<g id="glyph-0-4">
<path d="M 2.296875 -3.5 C 2.359375 -3.703125 2.453125 -4.09375 2.453125 -4.140625 C 2.453125 -4.3125 2.328125 -4.40625 2.15625 -4.40625 C 2.140625 -4.40625 1.859375 -4.390625 1.765625 -4.046875 L 0.328125 1.71875 C 0.296875 1.84375 0.296875 1.859375 0.296875 1.890625 C 0.296875 2.03125 0.40625 2.15625 0.578125 2.15625 C 0.78125 2.15625 0.90625 1.96875 0.921875 1.9375 C 0.96875 1.859375 1.09375 1.328125 1.46875 -0.203125 C 1.796875 0.0625 2.25 0.109375 2.4375 0.109375 C 3.140625 0.109375 3.53125 -0.34375 3.765625 -0.625 C 3.859375 -0.171875 4.234375 0.109375 4.671875 0.109375 C 5.015625 0.109375 5.25 -0.125 5.40625 -0.4375 C 5.578125 -0.796875 5.703125 -1.40625 5.703125 -1.421875 C 5.703125 -1.53125 5.609375 -1.53125 5.578125 -1.53125 C 5.484375 -1.53125 5.46875 -1.484375 5.4375 -1.34375 C 5.28125 -0.703125 5.09375 -0.109375 4.6875 -0.109375 C 4.421875 -0.109375 4.390625 -0.375 4.390625 -0.5625 C 4.390625 -0.78125 4.5 -1.25 4.578125 -1.609375 L 4.859375 -2.6875 C 4.890625 -2.828125 5 -3.203125 5.03125 -3.359375 C 5.078125 -3.59375 5.1875 -3.96875 5.1875 -4.03125 C 5.1875 -4.203125 5.046875 -4.296875 4.890625 -4.296875 C 4.84375 -4.296875 4.578125 -4.28125 4.5 -3.953125 L 4.03125 -2.078125 C 3.921875 -1.578125 3.8125 -1.171875 3.78125 -1.0625 C 3.765625 -1.015625 3.296875 -0.109375 2.484375 -0.109375 C 1.984375 -0.109375 1.75 -0.4375 1.75 -0.984375 C 1.75 -1.265625 1.8125 -1.546875 1.890625 -1.828125 Z M 2.296875 -3.5 "/>
</g>
<g id="glyph-1-0">
<path d="M 2.328125 -4.4375 C 2.328125 -4.625 2.328125 -4.625 2.125 -4.625 C 1.671875 -4.1875 1.046875 -4.1875 0.765625 -4.1875 L 0.765625 -3.9375 C 0.921875 -3.9375 1.390625 -3.9375 1.765625 -4.125 L 1.765625 -0.578125 C 1.765625 -0.34375 1.765625 -0.25 1.078125 -0.25 L 0.8125 -0.25 L 0.8125 0 C 0.9375 0 1.796875 -0.03125 2.046875 -0.03125 C 2.265625 -0.03125 3.140625 0 3.296875 0 L 3.296875 -0.25 L 3.03125 -0.25 C 2.328125 -0.25 2.328125 -0.34375 2.328125 -0.578125 Z M 2.328125 -4.4375 "/>
</g>
<g id="glyph-2-0">
<path d="M 6.84375 -3.265625 C 7 -3.265625 7.1875 -3.265625 7.1875 -3.453125 C 7.1875 -3.65625 7 -3.65625 6.859375 -3.65625 L 0.890625 -3.65625 C 0.75 -3.65625 0.5625 -3.65625 0.5625 -3.453125 C 0.5625 -3.265625 0.75 -3.265625 0.890625 -3.265625 Z M 6.859375 -1.328125 C 7 -1.328125 7.1875 -1.328125 7.1875 -1.53125 C 7.1875 -1.71875 7 -1.71875 6.84375 -1.71875 L 0.890625 -1.71875 C 0.75 -1.71875 0.5625 -1.71875 0.5625 -1.53125 C 0.5625 -1.328125 0.75 -1.328125 0.890625 -1.328125 Z M 6.859375 -1.328125 "/>
</g>
<g id="glyph-2-1">
<path d="M 2.9375 -6.375 C 2.9375 -6.625 2.9375 -6.640625 2.703125 -6.640625 C 2.078125 -6 1.203125 -6 0.890625 -6 L 0.890625 -5.6875 C 1.09375 -5.6875 1.671875 -5.6875 2.1875 -5.953125 L 2.1875 -0.78125 C 2.1875 -0.421875 2.15625 -0.3125 1.265625 -0.3125 L 0.953125 -0.3125 L 0.953125 0 C 1.296875 -0.03125 2.15625 -0.03125 2.5625 -0.03125 C 2.953125 -0.03125 3.828125 -0.03125 4.171875 0 L 4.171875 -0.3125 L 3.859375 -0.3125 C 2.953125 -0.3125 2.9375 -0.421875 2.9375 -0.78125 Z M 2.9375 -6.375 "/>
</g>
<g id="glyph-2-2">
<path d="M 6.1875 -5.828125 C 6.328125 -6.203125 6.59375 -6.484375 7.28125 -6.5 L 7.28125 -6.8125 C 6.96875 -6.78125 6.5625 -6.78125 6.3125 -6.78125 C 6.015625 -6.78125 5.4375 -6.796875 5.171875 -6.8125 L 5.171875 -6.5 C 5.6875 -6.484375 5.90625 -6.234375 5.90625 -6 C 5.90625 -5.921875 5.875 -5.859375 5.859375 -5.796875 L 4.03125 -1 L 2.125 -6.03125 C 2.0625 -6.171875 2.0625 -6.1875 2.0625 -6.203125 C 2.0625 -6.5 2.625 -6.5 2.875 -6.5 L 2.875 -6.8125 C 2.515625 -6.78125 1.828125 -6.78125 1.453125 -6.78125 C 0.984375 -6.78125 0.546875 -6.796875 0.1875 -6.8125 L 0.1875 -6.5 C 0.84375 -6.5 1.03125 -6.5 1.171875 -6.125 L 3.484375 0 C 3.546875 0.1875 3.59375 0.21875 3.734375 0.21875 C 3.890625 0.21875 3.921875 0.171875 3.96875 0.03125 Z M 6.1875 -5.828125 "/>
</g>
<g id="glyph-2-3">
<path d="M 1.0625 -0.75 C 1.0625 -0.3125 0.953125 -0.3125 0.28125 -0.3125 L 0.28125 0 C 0.609375 -0.015625 1.078125 -0.03125 1.359375 -0.03125 C 1.671875 -0.03125 2.0625 -0.015625 2.46875 0 L 2.46875 -0.3125 C 1.796875 -0.3125 1.6875 -0.3125 1.6875 -0.75 L 1.6875 -1.78125 L 2.328125 -2.328125 C 3.09375 -1.28125 3.515625 -0.71875 3.515625 -0.53125 C 3.515625 -0.34375 3.34375 -0.3125 3.15625 -0.3125 L 3.15625 0 C 3.421875 -0.015625 4.015625 -0.03125 4.234375 -0.03125 C 4.515625 -0.03125 4.8125 -0.015625 5.09375 0 L 5.09375 -0.3125 C 4.71875 -0.3125 4.5 -0.3125 4.125 -0.84375 L 2.859375 -2.625 C 2.84375 -2.640625 2.796875 -2.703125 2.796875 -2.734375 C 2.796875 -2.765625 3.515625 -3.375 3.609375 -3.453125 C 4.234375 -3.953125 4.65625 -3.984375 4.859375 -3.984375 L 4.859375 -4.296875 C 4.578125 -4.265625 4.453125 -4.265625 4.171875 -4.265625 C 3.8125 -4.265625 3.1875 -4.28125 3.046875 -4.296875 L 3.046875 -3.984375 C 3.234375 -3.984375 3.34375 -3.875 3.34375 -3.734375 C 3.34375 -3.53125 3.203125 -3.421875 3.125 -3.34375 L 1.71875 -2.140625 L 1.71875 -6.921875 L 0.28125 -6.8125 L 0.28125 -6.5 C 0.984375 -6.5 1.0625 -6.4375 1.0625 -5.9375 Z M 1.0625 -0.75 "/>
</g>
<g id="glyph-2-4">
<path d="M 6.75 -1.609375 L 6.5 -1.609375 C 6.453125 -1.359375 6.40625 -1.125 6.3125 -0.890625 C 6.265625 -0.734375 6.234375 -0.640625 5.65625 -0.640625 L 4.859375 -0.640625 C 5 -1.203125 5.296875 -1.6875 5.75 -2.34375 C 6.21875 -3.046875 6.625 -3.734375 6.625 -4.53125 C 6.625 -5.90625 5.28125 -7.03125 3.59375 -7.03125 C 1.890625 -7.03125 0.5625 -5.890625 0.5625 -4.53125 C 0.5625 -3.734375 0.96875 -3.046875 1.4375 -2.34375 C 1.875 -1.6875 2.1875 -1.203125 2.328125 -0.640625 L 1.53125 -0.640625 C 0.953125 -0.640625 0.921875 -0.734375 0.875 -0.875 C 0.78125 -1.109375 0.734375 -1.359375 0.6875 -1.609375 L 0.4375 -1.609375 L 0.765625 0 L 2.359375 0 C 2.578125 0 2.609375 0 2.609375 -0.203125 C 2.609375 -0.90625 2.296875 -1.78125 2.078125 -2.421875 C 1.859375 -3 1.578125 -3.78125 1.578125 -4.53125 C 1.578125 -6.125 2.6875 -6.8125 3.59375 -6.8125 C 4.546875 -6.8125 5.609375 -6.09375 5.609375 -4.53125 C 5.609375 -3.78125 5.328125 -3.03125 5.046875 -2.21875 C 4.890625 -1.796875 4.578125 -0.890625 4.578125 -0.203125 C 4.578125 0 4.609375 0 4.828125 0 L 6.421875 0 Z M 6.75 -1.609375 "/>
</g>
<g id="glyph-2-5">
<path d="M 4.578125 -3.1875 C 4.578125 -3.984375 4.53125 -4.78125 4.1875 -5.515625 C 3.734375 -6.484375 2.90625 -6.640625 2.5 -6.640625 C 1.890625 -6.640625 1.171875 -6.375 0.75 -5.453125 C 0.4375 -4.765625 0.390625 -3.984375 0.390625 -3.1875 C 0.390625 -2.4375 0.421875 -1.546875 0.84375 -0.78125 C 1.265625 0.015625 2 0.21875 2.484375 0.21875 C 3.015625 0.21875 3.78125 0.015625 4.21875 -0.9375 C 4.53125 -1.625 4.578125 -2.40625 4.578125 -3.1875 Z M 2.484375 0 C 2.09375 0 1.5 -0.25 1.328125 -1.203125 C 1.21875 -1.796875 1.21875 -2.71875 1.21875 -3.3125 C 1.21875 -3.953125 1.21875 -4.609375 1.296875 -5.140625 C 1.484375 -6.328125 2.234375 -6.421875 2.484375 -6.421875 C 2.8125 -6.421875 3.46875 -6.234375 3.65625 -5.25 C 3.765625 -4.6875 3.765625 -3.9375 3.765625 -3.3125 C 3.765625 -2.5625 3.765625 -1.890625 3.65625 -1.25 C 3.5 -0.296875 2.9375 0 2.484375 0 Z M 2.484375 0 "/>
</g>
<g id="glyph-2-6">
<path d="M 4.46875 -2 C 4.46875 -3.1875 3.65625 -4.1875 2.578125 -4.1875 C 2.109375 -4.1875 1.671875 -4.03125 1.3125 -3.671875 L 1.3125 -5.625 C 1.515625 -5.5625 1.84375 -5.5 2.15625 -5.5 C 3.390625 -5.5 4.09375 -6.40625 4.09375 -6.53125 C 4.09375 -6.59375 4.0625 -6.640625 3.984375 -6.640625 C 3.984375 -6.640625 3.953125 -6.640625 3.90625 -6.609375 C 3.703125 -6.515625 3.21875 -6.3125 2.546875 -6.3125 C 2.15625 -6.3125 1.6875 -6.390625 1.21875 -6.59375 C 1.140625 -6.625 1.125 -6.625 1.109375 -6.625 C 1 -6.625 1 -6.546875 1 -6.390625 L 1 -3.4375 C 1 -3.265625 1 -3.1875 1.140625 -3.1875 C 1.21875 -3.1875 1.234375 -3.203125 1.28125 -3.265625 C 1.390625 -3.421875 1.75 -3.96875 2.5625 -3.96875 C 3.078125 -3.96875 3.328125 -3.515625 3.40625 -3.328125 C 3.5625 -2.953125 3.59375 -2.578125 3.59375 -2.078125 C 3.59375 -1.71875 3.59375 -1.125 3.34375 -0.703125 C 3.109375 -0.3125 2.734375 -0.0625 2.28125 -0.0625 C 1.5625 -0.0625 0.984375 -0.59375 0.8125 -1.171875 C 0.84375 -1.171875 0.875 -1.15625 0.984375 -1.15625 C 1.3125 -1.15625 1.484375 -1.40625 1.484375 -1.640625 C 1.484375 -1.890625 1.3125 -2.140625 0.984375 -2.140625 C 0.84375 -2.140625 0.5 -2.0625 0.5 -1.609375 C 0.5 -0.75 1.1875 0.21875 2.296875 0.21875 C 3.453125 0.21875 4.46875 -0.734375 4.46875 -2 Z M 4.46875 -2 "/>
</g>
<g id="glyph-2-7">
<path d="M 3.65625 -3.171875 L 3.65625 -2.84375 C 3.65625 -0.515625 2.625 -0.0625 2.046875 -0.0625 C 1.875 -0.0625 1.328125 -0.078125 1.0625 -0.421875 C 1.5 -0.421875 1.578125 -0.703125 1.578125 -0.875 C 1.578125 -1.1875 1.34375 -1.328125 1.125 -1.328125 C 0.96875 -1.328125 0.671875 -1.25 0.671875 -0.859375 C 0.671875 -0.1875 1.203125 0.21875 2.046875 0.21875 C 3.34375 0.21875 4.5625 -1.140625 4.5625 -3.28125 C 4.5625 -5.96875 3.40625 -6.640625 2.515625 -6.640625 C 1.96875 -6.640625 1.484375 -6.453125 1.0625 -6.015625 C 0.640625 -5.5625 0.421875 -5.140625 0.421875 -4.390625 C 0.421875 -3.15625 1.296875 -2.171875 2.40625 -2.171875 C 3.015625 -2.171875 3.421875 -2.59375 3.65625 -3.171875 Z M 2.421875 -2.40625 C 2.265625 -2.40625 1.796875 -2.40625 1.5 -3.03125 C 1.3125 -3.40625 1.3125 -3.890625 1.3125 -4.390625 C 1.3125 -4.921875 1.3125 -5.390625 1.53125 -5.765625 C 1.796875 -6.265625 2.171875 -6.390625 2.515625 -6.390625 C 2.984375 -6.390625 3.3125 -6.046875 3.484375 -5.609375 C 3.59375 -5.28125 3.640625 -4.65625 3.640625 -4.203125 C 3.640625 -3.375 3.296875 -2.40625 2.421875 -2.40625 Z M 2.421875 -2.40625 "/>
</g>
<g id="glyph-2-8">
<path d="M 5.796875 -6.78125 L 0.328125 -6.78125 L 0.328125 -6.46875 L 0.5625 -6.46875 C 1.328125 -6.46875 1.359375 -6.359375 1.359375 -6 L 1.359375 -0.78125 C 1.359375 -0.421875 1.328125 -0.3125 0.5625 -0.3125 L 0.328125 -0.3125 L 0.328125 0 C 0.671875 -0.03125 1.453125 -0.03125 1.84375 -0.03125 C 2.25 -0.03125 3.15625 -0.03125 3.515625 0 L 3.515625 -0.3125 L 3.1875 -0.3125 C 2.25 -0.3125 2.25 -0.4375 2.25 -0.78125 L 2.25 -3.234375 L 3.09375 -3.234375 C 4.0625 -3.234375 4.15625 -2.921875 4.15625 -2.078125 L 4.40625 -2.078125 L 4.40625 -4.71875 L 4.15625 -4.71875 C 4.15625 -3.875 4.0625 -3.546875 3.09375 -3.546875 L 2.25 -3.546875 L 2.25 -6.078125 C 2.25 -6.40625 2.265625 -6.46875 2.734375 -6.46875 L 3.921875 -6.46875 C 5.421875 -6.46875 5.671875 -5.90625 5.828125 -4.53125 L 6.078125 -4.53125 Z M 5.796875 -6.78125 "/>
</g>
<g id="glyph-2-9">
<path d="M 1.265625 -0.765625 L 2.328125 -1.796875 C 3.875 -3.171875 4.46875 -3.703125 4.46875 -4.703125 C 4.46875 -5.84375 3.578125 -6.640625 2.359375 -6.640625 C 1.234375 -6.640625 0.5 -5.71875 0.5 -4.828125 C 0.5 -4.28125 1 -4.28125 1.03125 -4.28125 C 1.203125 -4.28125 1.546875 -4.390625 1.546875 -4.8125 C 1.546875 -5.0625 1.359375 -5.328125 1.015625 -5.328125 C 0.9375 -5.328125 0.921875 -5.328125 0.890625 -5.3125 C 1.109375 -5.96875 1.65625 -6.328125 2.234375 -6.328125 C 3.140625 -6.328125 3.5625 -5.515625 3.5625 -4.703125 C 3.5625 -3.90625 3.078125 -3.125 2.515625 -2.5 L 0.609375 -0.375 C 0.5 -0.265625 0.5 -0.234375 0.5 0 L 4.203125 0 L 4.46875 -1.734375 L 4.234375 -1.734375 C 4.171875 -1.4375 4.109375 -1 4 -0.84375 C 3.9375 -0.765625 3.28125 -0.765625 3.0625 -0.765625 Z M 1.265625 -0.765625 "/>
</g>
</g>
<clipPath id="clip-0">
<path clip-rule="nonzero" d="M 49 13 L 50 13 L 50 70.152344 L 49 70.152344 Z M 49 13 "/>
</clipPath>
<clipPath id="clip-1">
<path clip-rule="nonzero" d="M 106 13 L 107 13 L 107 70.152344 L 106 70.152344 Z M 106 13 "/>
</clipPath>
<clipPath id="clip-2">
<path clip-rule="nonzero" d="M 93 36 L 119.378906 36 L 119.378906 47 L 93 47 Z M 93 36 "/>
</clipPath>
<clipPath id="clip-3">
<path clip-rule="nonzero" d="M 49 69 L 107 69 L 107 70.152344 L 49 70.152344 Z M 49 69 "/>
</clipPath>
</defs>
<g clip-path="url(#clip-0)">
<path fill="none" stroke-width="0.3985" stroke-linecap="butt" stroke-linejoin="miter" stroke="rgb(0%, 0%, 0%)" stroke-opacity="1" stroke-miterlimit="10" d="M 0.00125 0.000875 L 0.00125 15.590719 M 0.00125 41.102437 L 0.00125 56.692281 " transform="matrix(1, 0, 0, -1, 49.53, 69.954)"/>
</g>
<path fill="none" stroke-width="0.797" stroke-linecap="butt" stroke-linejoin="miter" stroke="rgb(0%, 0%, 0%)" stroke-opacity="1" stroke-miterlimit="10" d="M -12.756563 28.348531 C -12.756563 21.301656 -7.045625 15.590719 0.00125 15.590719 C 7.044219 15.590719 12.755156 21.301656 12.755156 28.348531 C 12.755156 35.3915 7.044219 41.102437 0.00125 41.102437 C -7.045625 41.102437 -12.756563 35.3915 -12.756563 28.348531 Z M -12.756563 28.348531 " transform="matrix(1, 0, 0, -1, 49.53, 69.954)"/>
<path fill="none" stroke-width="0.797" stroke-linecap="butt" stroke-linejoin="miter" stroke="rgb(0%, 0%, 0%)" stroke-opacity="1" stroke-miterlimit="10" d="M 6.37625 28.348531 C 5.337187 26.715719 4.345 25.157125 3.18875 25.157125 C 2.036406 25.157125 1.040312 26.715719 0.00125 28.348531 C -1.037813 29.981344 -2.033906 31.536031 -3.190156 31.536031 C -4.3425 31.536031 -5.338594 29.981344 -6.377656 28.348531 " transform="matrix(1, 0, 0, -1, 49.53, 69.954)"/>
<g fill="rgb(0%, 0%, 0%)" fill-opacity="1">
<use xlink:href="#glyph-0-0" x="1.609" y="43.752"/>
</g>
<g fill="rgb(0%, 0%, 0%)" fill-opacity="1">
<use xlink:href="#glyph-1-0" x="7.42" y="45.246"/>
</g>
<g fill="rgb(0%, 0%, 0%)" fill-opacity="1">
<use xlink:href="#glyph-2-0" x="11.889" y="43.752"/>
<use xlink:href="#glyph-2-1" x="19.63791" y="43.752"/>
</g>
<g fill="rgb(0%, 0%, 0%)" fill-opacity="1">
<use xlink:href="#glyph-2-2" x="26.282964" y="43.752"/>
</g>
<path fill="none" stroke-width="0.3985" stroke-linecap="butt" stroke-linejoin="miter" stroke="rgb(0%, 0%, 0%)" stroke-opacity="1" stroke-miterlimit="10" d="M 0.00125 56.692281 L 11.337187 56.692281 M 45.356719 56.692281 L 56.692656 56.692281 " transform="matrix(1, 0, 0, -1, 49.53, 69.954)"/>
<path fill="none" stroke-width="0.797" stroke-linecap="butt" stroke-linejoin="bevel" stroke="rgb(0%, 0%, 0%)" stroke-opacity="1" stroke-miterlimit="10" d="M 10.93875 56.692281 L 14.173125 63.071187 L 19.841094 50.317281 L 25.512969 63.071187 L 31.180937 50.317281 L 36.848906 63.071187 L 42.520781 50.317281 L 45.755156 56.692281 " transform="matrix(1, 0, 0, -1, 49.53, 69.954)"/>
<g fill="rgb(0%, 0%, 0%)" fill-opacity="1">
<use xlink:href="#glyph-0-1" x="58.437" y="30.254"/>
</g>
<g fill="rgb(0%, 0%, 0%)" fill-opacity="1">
<use xlink:href="#glyph-1-0" x="66.002" y="31.748"/>
</g>
<g fill="rgb(0%, 0%, 0%)" fill-opacity="1">
<use xlink:href="#glyph-2-0" x="70.471" y="30.254"/>
<use xlink:href="#glyph-2-1" x="78.21991" y="30.254"/>
</g>
<g fill="rgb(0%, 0%, 0%)" fill-opacity="1">
<use xlink:href="#glyph-2-3" x="84.864964" y="30.254"/>
<use xlink:href="#glyph-2-4" x="90.123225" y="30.254"/>
</g>
<g clip-path="url(#clip-1)">
<path fill="none" stroke-width="0.3985" stroke-linecap="butt" stroke-linejoin="miter" stroke="rgb(0%, 0%, 0%)" stroke-opacity="1" stroke-miterlimit="10" d="M 56.692656 56.692281 L 56.692656 32.598531 M 56.692656 24.094625 L 56.692656 0.000875 " transform="matrix(1, 0, 0, -1, 49.53, 69.954)"/>
</g>
<g clip-path="url(#clip-2)">
<path fill="none" stroke-width="0.797" stroke-linecap="butt" stroke-linejoin="miter" stroke="rgb(0%, 0%, 0%)" stroke-opacity="1" stroke-miterlimit="10" d="M 69.450469 32.598531 L 43.93875 32.598531 M 69.450469 24.094625 L 43.93875 24.094625 " transform="matrix(1, 0, 0, -1, 49.53, 69.954)"/>
</g>
<g fill="rgb(0%, 0%, 0%)" fill-opacity="1">
<use xlink:href="#glyph-0-2" x="34.384" y="43.752"/>
</g>
<g fill="rgb(0%, 0%, 0%)" fill-opacity="1">
<use xlink:href="#glyph-1-0" x="41.505" y="45.246"/>
</g>
<g fill="rgb(0%, 0%, 0%)" fill-opacity="1">
<use xlink:href="#glyph-2-0" x="45.974" y="43.752"/>
<use xlink:href="#glyph-2-5" x="53.72291" y="43.752"/>
</g>
<g fill="rgb(0%, 0%, 0%)" fill-opacity="1">
<use xlink:href="#glyph-0-3" x="58.70421" y="43.752"/>
</g>
<g fill="rgb(0%, 0%, 0%)" fill-opacity="1">
<use xlink:href="#glyph-2-1" x="61.471821" y="43.752"/>
<use xlink:href="#glyph-2-6" x="66.453121" y="43.752"/>
<use xlink:href="#glyph-2-7" x="71.434421" y="43.752"/>
</g>
<g fill="rgb(0%, 0%, 0%)" fill-opacity="1">
<use xlink:href="#glyph-0-4" x="78.079475" y="43.752"/>
</g>
<g fill="rgb(0%, 0%, 0%)" fill-opacity="1">
<use xlink:href="#glyph-2-8" x="84.082938" y="43.752"/>
</g>
<g clip-path="url(#clip-3)">
<path fill="none" stroke-width="0.3985" stroke-linecap="butt" stroke-linejoin="miter" stroke="rgb(0%, 0%, 0%)" stroke-opacity="1" stroke-miterlimit="10" d="M 0.00125 0.000875 L 56.692656 0.000875 " transform="matrix(1, 0, 0, -1, 49.53, 69.954)"/>
</g>
<g fill="rgb(0%, 0%, 0%)" fill-opacity="1">
<use xlink:href="#glyph-2-1" x="41.028" y="9.741"/>
</g>
<g fill="rgb(0%, 0%, 0%)" fill-opacity="1">
<use xlink:href="#glyph-2-5" x="41.028" y="66.434"/>
</g>
<g fill="rgb(0%, 0%, 0%)" fill-opacity="1">
<use xlink:href="#glyph-2-9" x="97.722" y="9.741"/>
</g>
</svg>
